<svg xmlns="http://www.w3.org/2000/svg" xmlns:xlink="http://www.w3.org/1999/xlink" x="0px" y="0px" width="64px" height="64px" viewBox="0 0 64 64"><g stroke-width="2" transform="translate(0, 0)"><circle data-color="color-2" cx="32" cy="32" r="9" fill="none" stroke="#10dec3" stroke-linecap="square" stroke-miterlimit="10" stroke-width="2" stroke-linejoin="miter"></circle><path d="M62,36V28l-8.595-1.074a21.825,21.825,0,0,0-2.681-6.474l5.317-6.836L50.384,7.959l-6.836,5.317A21.9,21.9,0,0,0,37.074,10.6L36,2H28l-1.074,8.6a21.825,21.825,0,0,0-6.474,2.681L13.616,7.959,7.959,13.616l5.317,6.836A21.9,21.9,0,0,0,10.6,26.926L2,28v8l8.6,1.074a21.825,21.825,0,0,0,2.681,6.474L7.959,50.384l5.657,5.657,6.836-5.317a21.9,21.9,0,0,0,6.474,2.681L28,62h8l1.074-8.595a21.825,21.825,0,0,0,6.474-2.681l6.836,5.317,5.657-5.657-5.317-6.836a21.9,21.9,0,0,0,2.681-6.474Z" fill="none" stroke="#10dec3" stroke-linecap="square" stroke-miterlimit="10" stroke-width="2" stroke-linejoin="miter"></path></g></svg>